<svg width="199" height="53" viewBox="0 0 199 53" fill="none" xmlns="http://www.w3.org/2000/svg">
<circle cx="26" cy="26.7358" r="26" fill="url(#paint0_linear_1_213)"/>
<g clip-path="url(#clip0_1_213)">
<path d="M35.3182 34.6889H17.5485V25.0576C17.5485 20.1715 21.5095 16.2104 26.3957 16.2104H26.4709C31.3571 16.2104 35.3181 20.1715 35.3181 25.0576V34.6889H35.3182Z" fill="#FF5E57"/>
<path d="M26.471 16.21H26.3958C26.1393 16.21 25.8855 16.2215 25.6346 16.2429C30.1643 16.629 33.7206 20.4275 33.7206 25.0572V34.6885H35.3182V25.0572C35.3182 20.171 31.3572 16.21 26.471 16.21Z" fill="#F7372F"/>
<path d="M23.726 34.6887V25.9946C23.726 24.5202 24.9254 23.3208 26.3997 23.3208H26.467C27.9413 23.3208 29.1407 24.5202 29.1407 25.9946V34.6887H23.726Z" fill="#DE2A2E"/>
<path d="M26.467 23.3208H26.3997C26.1338 23.3208 25.8772 23.3604 25.6346 23.433C26.7371 23.7629 27.5432 24.7861 27.5432 25.9946V34.6887H29.1408V25.9946C29.1408 24.5202 27.9413 23.3208 26.467 23.3208Z" fill="#CF1D21"/>
<path d="M38.3497 40.6024H14.517C14.0273 40.6024 13.6983 40.1009 13.8941 39.6528L16.1238 34.5475C16.3688 33.9866 16.9263 33.6235 17.5428 33.6235H35.324C35.9404 33.6235 36.498 33.9866 36.743 34.5475L38.9727 39.6528C39.1683 40.101 38.8394 40.6024 38.3497 40.6024Z" fill="#C2D8ED"/>
<path d="M38.9727 39.6528L36.7429 34.5475C36.498 33.9866 35.9404 33.6235 35.3239 33.6235H33.7263C34.3428 33.6235 34.9003 33.9866 35.1453 34.5475L37.3751 39.6528C37.5708 40.101 37.2418 40.6024 36.7521 40.6024H38.3497C38.8394 40.6024 39.1684 40.101 38.9727 39.6528Z" fill="#B4CAE0"/>
<path d="M32.5848 25.4193C32.4789 25.4193 32.3773 25.3772 32.3024 25.3023C32.2275 25.2274 32.1854 25.1258 32.1854 25.0199C32.1854 21.8768 29.6051 19.3198 26.4333 19.3198C26.2128 19.3198 26.0339 19.141 26.0339 18.9204C26.0339 18.6998 26.2128 18.521 26.4333 18.521C30.0455 18.521 32.9842 21.4364 32.9842 25.0199C32.9842 25.1258 32.9422 25.2274 32.8673 25.3023C32.7924 25.3772 32.6908 25.4193 32.5848 25.4193Z" fill="white"/>
<path d="M14.7099 14.3574C14.635 14.2826 14.5333 14.2406 14.4274 14.2407C14.3215 14.2408 14.22 14.2829 14.1451 14.3579C14.1081 14.395 14.0787 14.4391 14.0586 14.4875C14.0386 14.536 14.0283 14.5879 14.0284 14.6404C14.0284 14.6928 14.0388 14.7448 14.0589 14.7932C14.079 14.8416 14.1085 14.8856 14.1456 14.9227L17.4033 18.1751C17.4404 18.2121 17.4844 18.2415 17.5328 18.2616C17.5812 18.2816 17.6331 18.2919 17.6855 18.2918C17.7646 18.2918 17.8418 18.2684 17.9076 18.2245C17.9733 18.1806 18.0245 18.1182 18.0547 18.0452C18.0849 17.9721 18.0928 17.8918 18.0773 17.8143C18.0618 17.7368 18.0237 17.6656 17.9677 17.6098L14.7099 14.3574ZM18.7334 13.995C18.6558 13.7885 18.4254 13.6837 18.2191 13.7616C18.1199 13.7988 18.0396 13.8739 17.9958 13.9704C17.9521 14.0668 17.9484 14.1767 17.9856 14.2759L18.8282 16.5188C18.8654 16.618 18.9405 16.6982 19.037 16.742C19.1334 16.7858 19.2433 16.7895 19.3425 16.7523C19.4416 16.715 19.5219 16.6399 19.5657 16.5434C19.6095 16.447 19.6132 16.3371 19.5759 16.2379L18.7334 13.995ZM16.5598 19.2279L14.2007 18.3587C13.9937 18.2823 13.7641 18.3885 13.6879 18.5954C13.6513 18.6948 13.6556 18.8047 13.7 18.9008C13.7444 18.997 13.8252 19.0716 13.9246 19.1082L16.2837 19.9774C16.3279 19.9937 16.3746 20.0021 16.4217 20.0021C16.5155 20.0022 16.6064 19.9692 16.6783 19.909C16.7502 19.8488 16.7987 19.7652 16.8151 19.6729C16.8316 19.5805 16.815 19.4853 16.7684 19.404C16.7217 19.3226 16.6478 19.2603 16.5598 19.2279ZM38.7216 14.3579C38.6846 14.3208 38.6406 14.2913 38.5921 14.2712C38.5437 14.251 38.4918 14.2407 38.4393 14.2406C38.3869 14.2406 38.3349 14.2509 38.2864 14.2709C38.238 14.2909 38.1939 14.3203 38.1568 14.3574L34.899 17.6098C34.8619 17.6468 34.8324 17.6908 34.8123 17.7393C34.7922 17.7877 34.7818 17.8396 34.7818 17.8921C34.7817 17.9445 34.792 17.9965 34.812 18.0449C34.8321 18.0934 34.8615 18.1375 34.8985 18.1746C34.9356 18.2118 34.9796 18.2413 35.0281 18.2614C35.0767 18.2816 35.1287 18.2919 35.1812 18.2918C35.2833 18.2918 35.3854 18.2529 35.4634 18.1751L38.7212 14.9228C38.7583 14.8857 38.7878 14.8417 38.8079 14.7932C38.828 14.7448 38.8384 14.6929 38.8384 14.6404C38.8384 14.588 38.8281 14.536 38.8081 14.4875C38.7881 14.4391 38.7587 14.395 38.7216 14.3579ZM34.6476 13.7616C34.5985 13.7431 34.5462 13.7345 34.4938 13.7363C34.4414 13.738 34.3898 13.7501 34.3421 13.7717C34.2943 13.7934 34.2513 13.8243 34.2155 13.8626C34.1796 13.9009 34.1517 13.9459 34.1333 13.995L33.2907 16.2379C33.2723 16.287 33.2637 16.3393 33.2655 16.3917C33.2672 16.4441 33.2793 16.4957 33.3009 16.5434C33.3226 16.5912 33.3535 16.6342 33.3918 16.67C33.4301 16.7059 33.4751 16.7338 33.5242 16.7523C33.5733 16.7707 33.6255 16.7793 33.678 16.7775C33.7304 16.7758 33.7819 16.7637 33.8297 16.7421C33.8775 16.7204 33.9205 16.6895 33.9563 16.6512C33.9922 16.6129 34.0201 16.5679 34.0385 16.5188L34.8811 14.2759C34.8995 14.2268 34.9081 14.1745 34.9064 14.1221C34.9046 14.0697 34.8925 14.0181 34.8709 13.9704C34.8492 13.9226 34.8183 13.8796 34.78 13.8437C34.7417 13.8079 34.6967 13.78 34.6476 13.7616ZM39.1788 18.5954C39.1607 18.5462 39.1331 18.501 39.0975 18.4624C39.0619 18.4239 39.0191 18.3927 38.9715 18.3708C38.9239 18.3488 38.8724 18.3364 38.8199 18.3343C38.7675 18.3323 38.7152 18.3406 38.666 18.3587L36.3069 19.2279C36.2572 19.2456 36.2114 19.273 36.1723 19.3085C36.1332 19.344 36.1015 19.387 36.0791 19.4348C36.0567 19.4826 36.044 19.5345 36.0418 19.5872C36.0396 19.64 36.0478 19.6927 36.0661 19.7423C36.0843 19.7918 36.1122 19.8373 36.1482 19.876C36.1842 19.9147 36.2274 19.9459 36.2755 19.9678C36.3236 19.9896 36.3755 20.0017 36.4283 20.0034C36.4811 20.005 36.5337 19.9962 36.5831 19.9774L38.9422 19.1082C39.0416 19.0716 39.1223 18.997 39.1667 18.9008C39.2111 18.8046 39.2155 18.6948 39.1788 18.5954Z" fill="#FFEEBD"/>
</g>
<circle cx="50" cy="26.7358" r="25.5" fill="white" stroke="url(#paint1_linear_1_213)"/>
<g clip-path="url(#clip1_1_213)">
<path fill-rule="evenodd" clip-rule="evenodd" d="M20.8597 38.6674V21.5454L13.0058 22.0864H12.9966V38.5052C12.9966 38.5482 13.0137 38.5895 13.0441 38.6199C13.0745 38.6503 13.1158 38.6674 13.1588 38.6674H20.8597ZM37.8642 22.0864L30.0104 21.5454V38.6674H37.7113C37.7543 38.6674 37.7955 38.6503 37.826 38.6199C37.8564 38.5895 37.8735 38.5482 37.8735 38.5052V22.0864C37.8704 22.0864 37.8673 22.0879 37.8642 22.0864Z" fill="#BEB9DD"/>
<path fill-rule="evenodd" clip-rule="evenodd" d="M30.5541 20.0796V22.0868H37.8734C38.4217 22.0821 38.87 21.6334 38.87 21.0832C38.87 20.5314 38.4171 20.0796 37.8642 20.0796L30.5541 20.0796Z" fill="#EB5468"/>
<path fill-rule="evenodd" clip-rule="evenodd" d="M12.9966 23.3405H18.5816C19.3856 23.3405 19.2485 23.7585 19.2485 24.57V38.6674H20.3159V22.0864H12.9966V23.3405Z" fill="#A7A2D3"/>
<path fill-rule="evenodd" clip-rule="evenodd" d="M37.5284 21.0832C37.5284 21.6334 37.0802 22.0821 36.5319 22.0868H37.8734C38.4218 22.0821 38.87 21.6334 38.87 21.0832C38.87 20.5314 38.4171 20.0796 37.8642 20.0796H36.5226C37.0756 20.0796 37.5284 20.5314 37.5284 21.0832Z" fill="#E5384F"/>
<path fill-rule="evenodd" clip-rule="evenodd" d="M37.8642 22.0864H30.5541V23.3405H35.8742C36.3363 23.3405 36.5319 23.3313 36.5319 23.8369V38.6675H37.7113C37.7543 38.6675 37.7955 38.6504 37.826 38.62C37.8564 38.5895 37.8735 38.5483 37.8735 38.5053V22.0864H37.8642Z" fill="#A7A2D3"/>
<path fill-rule="evenodd" clip-rule="evenodd" d="M30.5538 17.3486V38.6678H28.4086V32.4909H22.4615V38.6678H20.3162V17.3486L25.282 16.7339L30.5538 17.3486Z" fill="#F9F7F8"/>
<path fill-rule="evenodd" clip-rule="evenodd" d="M14.8403 29.245H18.4722V31.5549H14.8403V29.245ZM14.8403 24.3901H18.4722V26.7H14.8403V24.3901ZM32.3963 24.3901H36.0298V26.7H32.3963V24.3901ZM32.3963 29.245H36.0298V31.5549H32.3963V29.245ZM32.3963 34.1014H36.0298V36.4098H32.3963V34.1014ZM14.8403 34.1014H18.4722V36.4098H14.8403V34.1014Z" fill="#B1E4F9"/>
<path fill-rule="evenodd" clip-rule="evenodd" d="M14.8403 24.3901H18.4722V25.2446H14.8403V24.3901ZM14.8403 29.245H18.4722V30.0995H14.8403V29.245ZM14.8403 34.1014H18.4722V34.9544H14.8403V34.1014ZM32.3963 34.1014H36.0298V34.9544H32.3963V34.1014ZM32.3963 29.245H36.0298V30.0995H32.3963V29.245ZM32.3963 24.3901H36.0298V25.2446H32.3963V24.3901Z" fill="#75CEF8"/>
<path d="M36.0297 31.9606H32.3962C32.343 31.9607 32.2903 31.9502 32.2411 31.9298C32.1919 31.9094 32.1472 31.8796 32.1095 31.8419C32.0719 31.8043 32.042 31.7596 32.0216 31.7104C32.0013 31.6612 31.9908 31.6084 31.9908 31.5552V29.2453C31.9908 29.1378 32.0335 29.0346 32.1095 28.9586C32.1856 28.8826 32.2887 28.8398 32.3962 28.8398H36.0297C36.0829 28.8398 36.1357 28.8503 36.1849 28.8707C36.234 28.8911 36.2788 28.9209 36.3164 28.9586C36.3541 28.9962 36.3839 29.0409 36.4043 29.0901C36.4247 29.1393 36.4352 29.1921 36.4351 29.2453V31.5552C36.4352 31.6084 36.4247 31.6612 36.4043 31.7104C36.3839 31.7596 36.3541 31.8043 36.3164 31.8419C36.2788 31.8796 36.234 31.9094 36.1849 31.9298C36.1357 31.9502 36.0829 31.9607 36.0297 31.9606ZM32.8017 31.1497H35.6242V29.6508H32.8017V31.1497ZM36.0297 36.8155H32.3962C32.343 36.8155 32.2903 36.805 32.2411 36.7847C32.1919 36.7643 32.1472 36.7344 32.1095 36.6968C32.0719 36.6591 32.042 36.6144 32.0216 36.5652C32.0013 36.516 31.9908 36.4633 31.9908 36.41V34.1017C31.9908 33.9942 32.0335 33.8911 32.1095 33.815C32.1856 33.739 32.2887 33.6963 32.3962 33.6963H36.0297C36.0829 33.6963 36.1357 33.7068 36.1849 33.7271C36.234 33.7475 36.2788 33.7774 36.3164 33.815C36.3541 33.8527 36.3839 33.8974 36.4043 33.9466C36.4247 33.9958 36.4352 34.0485 36.4351 34.1017V36.41C36.4352 36.4633 36.4247 36.516 36.4043 36.5652C36.3839 36.6144 36.3541 36.6591 36.3164 36.6968C36.2788 36.7344 36.234 36.7643 36.1849 36.7847C36.1357 36.805 36.0829 36.8155 36.0297 36.8155ZM32.8017 36.0046H35.6242V34.5072H32.8017V36.0046Z" fill="#F9F7F8"/>
<path fill-rule="evenodd" clip-rule="evenodd" d="M20.3159 18.5873H28.0912C28.8459 18.5873 29.0924 18.512 29.0924 19.3112V38.6678H30.5541V17.3486H20.3159V18.5873Z" fill="#DDDAEC"/>
<path fill-rule="evenodd" clip-rule="evenodd" d="M30.9284 15.3413H19.7892C19.2362 15.3413 18.7834 15.7932 18.7834 16.3449C18.7834 16.8966 19.2362 17.3485 19.7892 17.3485H30.9284C31.4813 17.3485 31.9342 16.8966 31.9342 16.3449C31.9342 15.7931 31.4813 15.3413 30.9284 15.3413Z" fill="#EB5468"/>
<path fill-rule="evenodd" clip-rule="evenodd" d="M29.4667 15.3413C30.0196 15.3413 30.4725 15.7932 30.4725 16.3449C30.4725 16.8966 30.0196 17.3485 29.4667 17.3485H30.9284C31.4813 17.3485 31.9342 16.8966 31.9342 16.3449C31.9342 15.7932 31.4813 15.3413 30.9284 15.3413H29.4667Z" fill="#E5384F"/>
<path fill-rule="evenodd" clip-rule="evenodd" d="M22.4615 32.4907H25.4345V38.6676H22.4615V32.4907ZM25.4345 32.4907H28.4086V38.6676H25.4345V32.4907Z" fill="#B1E4F9"/>
<path fill-rule="evenodd" clip-rule="evenodd" d="M22.4615 33.3226H25.4342V32.4912H22.4615V33.3226ZM25.4342 32.4912V33.3226L27.1747 33.3227C27.6537 33.3227 27.5536 33.464 27.5536 33.9681V38.6678H28.4085V32.4912H25.4342Z" fill="#75CEF8"/>
<path d="M18.4722 27.1057H14.8403C14.787 27.1057 14.7343 27.0952 14.6851 27.0748C14.6359 27.0544 14.5912 27.0246 14.5536 26.9869C14.5159 26.9493 14.486 26.9046 14.4657 26.8554C14.4453 26.8062 14.4348 26.7535 14.4348 26.7002V24.3903C14.4348 24.2828 14.4775 24.1797 14.5536 24.1036C14.6296 24.0276 14.7327 23.9849 14.8403 23.9849H18.4722C18.5254 23.9849 18.5782 23.9953 18.6274 24.0157C18.6766 24.0361 18.7213 24.066 18.7589 24.1036C18.7966 24.1413 18.8264 24.186 18.8468 24.2352C18.8672 24.2844 18.8777 24.3371 18.8777 24.3903V26.7002C18.8777 26.7535 18.8672 26.8062 18.8468 26.8554C18.8264 26.9046 18.7966 26.9493 18.7589 26.9869C18.7213 27.0246 18.6766 27.0544 18.6274 27.0748C18.5782 27.0952 18.5254 27.1057 18.4722 27.1057ZM15.2457 26.2947H18.0667V24.7958H15.2457V26.2947ZM18.4722 31.9606H14.8403C14.787 31.9606 14.7343 31.9501 14.6851 31.9297C14.6359 31.9094 14.5912 31.8795 14.5536 31.8418C14.5159 31.8042 14.486 31.7595 14.4657 31.7103C14.4453 31.6611 14.4348 31.6084 14.4348 31.5551V29.2452C14.4348 29.1377 14.4775 29.0346 14.5536 28.9585C14.6296 28.8825 14.7327 28.8398 14.8403 28.8398H18.4722C18.5254 28.8398 18.5782 28.8503 18.6274 28.8706C18.6766 28.891 18.7213 28.9209 18.7589 28.9585C18.7966 28.9962 18.8264 29.0409 18.8468 29.0901C18.8672 29.1393 18.8777 29.192 18.8777 29.2452V31.5551C18.8777 31.6084 18.8672 31.6611 18.8468 31.7103C18.8264 31.7595 18.7966 31.8042 18.7589 31.8418C18.7213 31.8795 18.6766 31.9094 18.6274 31.9297C18.5782 31.9501 18.5254 31.9606 18.4722 31.9606ZM15.2457 31.1496H18.0667V29.6507H15.2457V31.1496ZM18.4722 36.8154H14.8403C14.787 36.8155 14.7343 36.805 14.6851 36.7846C14.6359 36.7642 14.5912 36.7344 14.5536 36.6967C14.5159 36.659 14.486 36.6143 14.4657 36.5652C14.4453 36.516 14.4348 36.4632 14.4348 36.41V34.1017C14.4348 33.9941 14.4775 33.891 14.5536 33.815C14.6296 33.7389 14.7327 33.6962 14.8403 33.6962H18.4722C18.5254 33.6962 18.5782 33.7067 18.6274 33.7271C18.6766 33.7474 18.7213 33.7773 18.7589 33.815C18.7966 33.8526 18.8264 33.8973 18.8468 33.9465C18.8672 33.9957 18.8777 34.0484 18.8777 34.1017V36.41C18.8777 36.4632 18.8672 36.516 18.8468 36.5652C18.8264 36.6143 18.7966 36.659 18.7589 36.6967C18.7213 36.7344 18.6766 36.7642 18.6274 36.7846C18.5782 36.805 18.5254 36.8155 18.4722 36.8154ZM15.2457 36.0045H18.0667V34.5071H15.2457V36.0045ZM36.0297 27.1057H32.3963C32.343 27.1057 32.2903 27.0952 32.2411 27.0748C32.1919 27.0544 32.1472 27.0246 32.1095 26.9869C32.0719 26.9493 32.042 26.9046 32.0216 26.8554C32.0013 26.8062 31.9908 26.7535 31.9908 26.7002V24.3903C31.9908 24.2828 32.0335 24.1797 32.1095 24.1036C32.1856 24.0276 32.2887 23.9849 32.3963 23.9849H36.0297C36.0829 23.9849 36.1357 23.9953 36.1849 24.0157C36.2341 24.0361 36.2788 24.066 36.3164 24.1036C36.3541 24.1413 36.3839 24.186 36.4043 24.2352C36.4247 24.2844 36.4352 24.3371 36.4352 24.3903V26.7002C36.4352 26.7535 36.4247 26.8062 36.4043 26.8554C36.3839 26.9046 36.3541 26.9493 36.3164 26.9869C36.2788 27.0246 36.2341 27.0544 36.1849 27.0748C36.1357 27.0952 36.0829 27.1057 36.0297 27.1057ZM32.8017 26.2947H35.6242V24.7958H32.8017V26.2947Z" fill="#F9F7F8"/>
<path d="M28.814 32.4909V38.6678H28.003V32.8964H25.8399V38.6678H25.0289V32.8964H22.8669V38.6678H22.0559V32.4909C22.0559 32.3834 22.0987 32.2803 22.1747 32.2043C22.2507 32.1282 22.3538 32.0855 22.4614 32.0854H28.4085C28.516 32.0855 28.6191 32.1282 28.6952 32.2042C28.7712 32.2802 28.814 32.3834 28.814 32.4909Z" fill="#375E7D"/>
<path fill-rule="evenodd" clip-rule="evenodd" d="M26.2737 20.1362H24.5948C24.5147 20.1362 24.45 20.2023 24.45 20.2822V21.8268H22.9021C22.8829 21.8267 22.8638 21.8305 22.8461 21.8378C22.8283 21.8451 22.8122 21.8559 22.7986 21.8695C22.785 21.883 22.7743 21.8991 22.7669 21.9168C22.7595 21.9346 22.7557 21.9536 22.7557 21.9728V23.648C22.7557 23.7279 22.8204 23.7924 22.9021 23.7924H24.45V25.3385C24.45 25.3575 24.4538 25.3763 24.461 25.3939C24.4683 25.4114 24.479 25.4274 24.4924 25.4408C24.5059 25.4542 24.5219 25.4648 24.5394 25.4721C24.557 25.4793 24.5758 25.483 24.5948 25.483H26.2737C26.3538 25.483 26.42 25.4184 26.42 25.3385V23.7924H27.968C28.0481 23.7924 28.1143 23.7279 28.1143 23.648V21.9728C28.1143 21.8929 28.0481 21.8268 27.968 21.8268H26.42V20.2822C26.42 20.2024 26.3538 20.1362 26.2737 20.1362Z" fill="#EB5468"/>
<path fill-rule="evenodd" clip-rule="evenodd" d="M26.2737 20.1362H25.0523C25.3326 20.7725 25.502 21.5993 25.502 22.5014C25.502 23.7355 25.1862 24.8252 24.7026 25.4829H26.2737C26.3538 25.4829 26.42 25.4183 26.42 25.3384V23.7923H27.968C28.0481 23.7923 28.1143 23.7278 28.1143 23.6479V21.9727C28.1143 21.8928 28.0481 21.8267 27.968 21.8267H26.42V20.2821C26.42 20.2024 26.3538 20.1362 26.2737 20.1362Z" fill="#E5384F"/>
<path d="M27.1485 27.9818H23.7214C23.6139 27.9818 23.5108 27.9391 23.4347 27.8631C23.3587 27.787 23.316 27.6839 23.316 27.5764C23.316 27.4688 23.3587 27.3657 23.4347 27.2897C23.5108 27.2136 23.6139 27.1709 23.7214 27.1709H27.1485C27.3725 27.1709 27.554 27.3524 27.554 27.5764C27.554 27.8003 27.3725 27.9818 27.1485 27.9818ZM27.1485 29.8967H23.7214C23.6682 29.8967 23.6155 29.8862 23.5663 29.8659C23.5171 29.8455 23.4724 29.8156 23.4347 29.778C23.3971 29.7403 23.3672 29.6956 23.3468 29.6464C23.3265 29.5972 23.316 29.5445 23.316 29.4913C23.316 29.438 23.3265 29.3853 23.3468 29.3361C23.3672 29.2869 23.3971 29.2422 23.4347 29.2046C23.4724 29.1669 23.5171 29.137 23.5663 29.1167C23.6155 29.0963 23.6682 29.0858 23.7214 29.0858H27.1485C27.3725 29.0858 27.554 29.2673 27.554 29.4913C27.554 29.7152 27.3725 29.8967 27.1485 29.8967Z" fill="#60B7FF"/>
<path fill-rule="evenodd" clip-rule="evenodd" d="M12 21.0831C12 21.6333 12.4482 22.0821 12.9966 22.0867H20.3159V20.0796H13.0058C12.4529 20.0796 12 20.5314 12 21.0831Z" fill="#EB5468"/>
<path fill-rule="evenodd" clip-rule="evenodd" d="M19.2485 20.0796V22.0867H20.3159V20.0796H19.2485Z" fill="#E5384F"/>
</g>
<rect x="54" y="1.73584" width="143.6" height="50" rx="25" fill="#111111" stroke="white" stroke-width="2"/>
<path d="M70.08 21.4493V32.5693H68.256V27.7053H63.024V32.5693H61.2V21.4493H63.024V26.2173H68.256V21.4493H70.08ZM74.3053 22.9213V26.1853H78.1453V27.6733H74.3053V31.0813H78.6253V32.5693H72.4813V21.4333H78.6253V22.9213H74.3053ZM87.5759 30.2973H82.9199L82.1199 32.5693H80.2159L84.1999 21.4333H86.3119L90.2959 32.5693H88.3759L87.5759 30.2973ZM87.0639 28.8093L85.2559 23.6413L83.4319 28.8093H87.0639ZM93.8521 31.0973H97.6121V32.5693H92.0281V21.4493H93.8521V31.0973ZM106.322 21.4493V22.9373H103.362V32.5693H101.538V22.9373H98.5615V21.4493H106.322ZM117.049 21.4493V32.5693H115.225V27.7053H109.993V32.5693H108.169V21.4493H109.993V26.2173H115.225V21.4493H117.049ZM122.998 26.9853C122.998 25.8973 123.249 24.9213 123.75 24.0573C124.262 23.1933 124.95 22.5213 125.814 22.0413C126.689 21.5507 127.644 21.3053 128.678 21.3053C129.862 21.3053 130.913 21.5987 131.83 22.1853C132.758 22.7613 133.43 23.5827 133.846 24.6493H131.654C131.366 24.0627 130.966 23.6253 130.454 23.3373C129.942 23.0493 129.35 22.9053 128.678 22.9053C127.942 22.9053 127.286 23.0707 126.71 23.4013C126.134 23.732 125.681 24.2067 125.35 24.8253C125.03 25.444 124.87 26.164 124.87 26.9853C124.87 27.8067 125.03 28.5267 125.35 29.1453C125.681 29.764 126.134 30.244 126.71 30.5853C127.286 30.916 127.942 31.0813 128.678 31.0813C129.35 31.0813 129.942 30.9373 130.454 30.6493C130.966 30.3613 131.366 29.924 131.654 29.3373H133.846C133.43 30.404 132.758 31.2253 131.83 31.8013C130.913 32.3773 129.862 32.6653 128.678 32.6653C127.633 32.6653 126.678 32.4253 125.814 31.9453C124.95 31.4547 124.262 30.7773 123.75 29.9133C123.249 29.0493 122.998 28.0733 122.998 26.9853ZM142.685 30.2973H138.029L137.229 32.5693H135.325L139.309 21.4333H141.421L145.405 32.5693H143.485L142.685 30.2973ZM142.173 28.8093L140.365 23.6413L138.541 28.8093H142.173ZM152.914 32.5693L150.354 28.1213H148.962V32.5693H147.138V21.4493H150.978C151.831 21.4493 152.551 21.5987 153.138 21.8973C153.735 22.196 154.178 22.596 154.466 23.0973C154.764 23.5987 154.914 24.1587 154.914 24.7773C154.914 25.5027 154.7 26.164 154.274 26.7613C153.858 27.348 153.212 27.748 152.338 27.9613L155.09 32.5693H152.914ZM148.962 26.6653H150.978C151.66 26.6653 152.172 26.4947 152.514 26.1533C152.866 25.812 153.042 25.3533 153.042 24.7773C153.042 24.2013 152.871 23.7533 152.53 23.4333C152.188 23.1027 151.671 22.9373 150.978 22.9373H148.962V26.6653ZM159.071 22.9213V26.1853H162.911V27.6733H159.071V31.0813H163.391V32.5693H157.247V21.4333H163.391V22.9213H159.071Z" fill="white"/>
<defs>
<linearGradient id="paint0_linear_1_213" x1="26" y1="0.73584" x2="26" y2="52.7358" gradientUnits="userSpaceOnUse">
<stop stop-color="#103BBE"/>
<stop offset="1" stop-color="#2ECBF1"/>
</linearGradient>
<linearGradient id="paint1_linear_1_213" x1="50" y1="0.73584" x2="50" y2="52.7358" gradientUnits="userSpaceOnUse">
<stop stop-color="#103DBF"/>
<stop offset="1" stop-color="#2CBFED"/>
</linearGradient>
<clipPath id="clip0_1_213">
<rect width="26.8667" height="26.8667" fill="white" transform="translate(13 13.7358)"/>
</clipPath>
<clipPath id="clip1_1_213">
<rect width="26.87" height="26.87" fill="white" transform="translate(12 13.5693)"/>
</clipPath>
</defs>
</svg>
