<svg width="20" height="21" viewBox="0 0 20 21" fill="none" xmlns="http://www.w3.org/2000/svg">
<path d="M9.975 2.2334C5.375 2.2334 1.64166 5.96673 1.64166 10.5667C1.64166 15.1667 5.375 18.9001 9.975 18.9001C14.575 18.9001 18.3083 15.1667 18.3083 10.5667C18.3083 5.96673 14.5833 2.2334 9.975 2.2334ZM12.475 12.4251L10.0583 13.8167C9.75833 13.9917 9.425 14.0751 9.1 14.0751C8.76666 14.0751 8.44166 13.9917 8.14166 13.8167C7.54166 13.4667 7.18333 12.8501 7.18333 12.1501V9.3584C7.18333 8.66673 7.54166 8.04173 8.14166 7.69173C8.74166 7.34173 9.45833 7.34173 10.0667 7.69173L12.4833 9.0834C13.0833 9.4334 13.4417 10.0501 13.4417 10.7501C13.4417 11.4501 13.0833 12.0751 12.475 12.4251Z" fill="url(#paint0_linear_1_265)"/>
<defs>
<linearGradient id="paint0_linear_1_265" x1="9.975" y1="2.2334" x2="9.975" y2="18.9001" gradientUnits="userSpaceOnUse">
<stop stop-color="#103ABE"/>
<stop offset="1" stop-color="#2ECBF1"/>
</linearGradient>
</defs>
</svg>
